<svg width="800" height="800" viewBox="0 0 800 800" fill="none" xmlns="http://www.w3.org/2000/svg">
<path d="M400 0C320.888 0 243.552 23.4596 177.772 67.4121C111.992 111.365 60.7234 173.836 30.4484 246.927C0.173315 320.017 -7.74802 400.444 7.68607 478.036C23.1202 555.629 61.2165 626.902 117.157 682.843C173.098 738.784 244.372 776.88 321.964 792.314C399.556 807.748 479.983 799.827 553.074 769.552C626.164 739.277 688.635 688.008 732.588 622.228C776.541 556.448 800 479.113 800 400C799.887 293.948 757.708 192.272 682.718 117.282C607.728 42.2919 506.052 0.112941 400 0ZM400 700C340.666 700 282.664 682.405 233.329 649.441C183.994 616.476 145.543 569.623 122.836 514.805C100.13 459.987 94.189 399.667 105.765 341.473C117.34 283.279 145.912 229.824 187.868 187.868C229.824 145.912 283.279 117.34 341.473 105.764C399.667 94.1888 459.987 100.13 514.805 122.836C569.623 145.542 616.477 183.994 649.441 233.329C682.405 282.664 700 340.666 700 400C699.913 479.538 668.279 555.794 612.036 612.036C555.794 668.278 479.539 699.913 400 700Z" fill="white"/>
<path d="M400 700C340.666 700 282.664 682.405 233.329 649.441C183.994 616.476 145.543 569.623 122.836 514.805C100.13 459.987 94.189 399.667 105.765 341.473C117.34 283.279 145.912 229.824 187.868 187.868C229.824 145.912 283.279 117.34 341.473 105.764C399.667 94.1888 459.987 100.13 514.805 122.836C569.623 145.542 616.477 183.994 649.441 233.329C682.405 282.664 700 340.666 700 400C699.913 479.538 668.279 555.794 612.036 612.036C555.794 668.278 479.539 699.913 400 700Z" fill="white"/>
<path d="M520.585 250.568C527.073 249.971 533.615 250.66 539.836 252.597C546.057 254.533 551.835 257.679 556.837 261.854C561.84 266.028 565.968 271.151 568.986 276.925C572.004 282.699 573.852 289.013 574.424 295.503C574.997 301.993 574.282 308.533 572.321 314.746C570.421 320.765 567.387 326.363 563.386 331.24L562.997 331.71L562.995 331.712L396.295 531.712C391.653 537.283 385.842 541.765 379.274 544.839C372.706 547.913 365.542 549.505 358.29 549.5C351.038 549.495 343.875 547.895 337.311 544.813C330.952 541.826 325.304 537.52 320.744 532.183L320.306 531.663V531.662L237.005 431.662H237.004C232.847 426.673 229.713 420.913 227.781 414.712C225.849 408.511 225.157 401.991 225.745 395.523C226.333 389.054 228.189 382.765 231.208 377.014C234.226 371.263 238.348 366.163 243.337 362.005C248.327 357.847 254.087 354.712 260.288 352.78C266.489 350.848 273.01 350.157 279.478 350.745C285.946 351.333 292.235 353.19 297.986 356.208C303.377 359.038 308.197 362.837 312.205 367.412L312.995 368.338L357.917 422.195L358.301 422.655L358.685 422.195L487.004 268.289L487.005 268.288C491.161 263.27 496.266 259.121 502.029 256.08C507.791 253.039 514.097 251.166 520.585 250.568Z" fill="#008000" stroke="black"/>
</svg>
