<?xml version="1.0" standalone="no"?>
<!DOCTYPE svg PUBLIC "-//W3C//DTD SVG 20010904//EN"
 "http://www.w3.org/TR/2001/REC-SVG-20010904/DTD/svg10.dtd">
<svg version="1.0" xmlns="http://www.w3.org/2000/svg"
 width="212.000000pt" height="710.000000pt" viewBox="0 0 212.000000 710.000000"
 preserveAspectRatio="xMidYMid meet">

<g transform="translate(0.000000,710.000000) scale(0.100000,-0.100000)"
fill="#000000" stroke="none">
<path d="M1504 6815 c-12 -18 -15 -39 -12 -70 l6 -45 -49 0 c-38 0 -51 -4 -63
-22 -41 -58 -1 -138 69 -138 41 0 42 -6 14 -63 -40 -79 -91 -138 -173 -199
-44 -34 -93 -72 -108 -86 l-28 -26 -24 23 c-41 38 -60 25 -67 -44 -7 -70 -18
-96 -52 -114 -41 -22 -70 -6 -128 66 -62 77 -115 111 -189 120 -62 7 -65 21
52 -187 133 -237 234 -487 282 -693 20 -88 20 -90 -6 -102 -19 -8 -24 -19 -26
-62 -3 -48 -1 -53 28 -74 20 -15 30 -31 30 -48 0 -51 -11 -68 -51 -81 -46 -16
-57 -27 -74 -77 -11 -31 -19 -39 -49 -47 -69 -16 -119 -93 -102 -160 15 -60
100 -105 257 -136 l57 -11 20 -57 c11 -31 25 -73 31 -92 46 -156 65 -614 37
-880 -52 -494 -157 -945 -299 -1289 -44 -106 -51 -115 -99 -125 -14 -3 -40
-20 -57 -37 -34 -34 -40 -77 -19 -135 9 -25 9 -51 1 -103 -19 -120 -39 -149
-233 -341 -204 -202 -221 -228 -222 -343 0 -73 15 -117 65 -190 10 -16 8 -21
-13 -35 -55 -38 -90 -76 -101 -111 -7 -22 -10 -88 -8 -162 4 -114 6 -128 31
-171 90 -151 389 -292 753 -353 321 -53 774 -59 1068 -14 57 9 67 14 67 31 0
18 -4 20 -37 15 -223 -36 -709 -43 -938 -13 -448 57 -775 185 -875 343 -27 42
-51 146 -37 160 3 3 34 -20 69 -51 125 -112 296 -182 613 -251 234 -50 337
-59 685 -60 341 0 506 13 517 42 3 8 4 15 2 17 -2 2 -40 -4 -84 -12 -63 -13
-152 -16 -425 -16 -362 0 -398 3 -668 55 -363 70 -622 199 -692 344 -28 57
-20 94 27 140 41 40 59 44 68 15 12 -38 107 -110 218 -164 209 -102 420 -152
808 -191 191 -20 417 -14 609 15 74 11 136 20 138 20 1 0 2 6 2 14 0 11 -10
12 -47 4 -95 -18 -321 -38 -430 -38 -115 0 -395 22 -513 41 -106 16 -340 69
-405 91 -111 38 -236 109 -305 174 -68 65 -78 97 -13 47 119 -94 364 -183 628
-227 271 -46 707 -60 921 -31 148 20 164 24 164 41 0 14 -8 14 -113 -7 -95
-18 -344 -31 -492 -24 -476 20 -896 122 -1090 265 -103 76 -149 146 -149 230
-1 93 26 134 226 330 156 154 181 183 210 245 25 55 32 83 33 132 0 35 1 63 1
63 1 0 28 -17 60 -39 102 -66 248 -117 434 -151 174 -31 511 -26 675 9 50 11
116 25 148 32 33 8 57 18 57 26 0 16 -1 16 -37 2 -62 -24 -209 -48 -361 -60
-257 -20 -494 7 -738 85 -132 42 -254 134 -254 191 0 30 46 85 71 85 16 0 19
-7 19 -45 0 -70 42 -100 201 -149 234 -72 549 -96 799 -62 160 22 294 57 298
78 3 15 -4 14 -70 -3 -158 -42 -226 -51 -406 -56 -219 -6 -360 6 -531 48 -198
49 -261 85 -261 150 0 14 21 70 46 123 107 226 232 693 294 1096 61 396 49
992 -24 1199 -9 24 -16 53 -16 64 0 18 4 19 53 12 102 -16 441 -20 602 -8 88
6 162 10 164 7 2 -2 -3 -34 -12 -71 -50 -208 -60 -315 -60 -633 1 -319 13
-467 64 -765 36 -212 111 -523 148 -615 19 -49 12 71 -9 136 -47 153 -118 514
-144 742 -52 444 -39 852 36 1131 l23 85 50 11 c36 7 51 15 53 29 3 15 0 18
-20 13 -148 -38 -598 -58 -817 -38 -222 21 -392 64 -441 112 -41 41 -41 89 -1
129 44 45 72 47 130 12 142 -88 446 -122 773 -87 253 26 378 61 378 104 0 17
-4 16 -49 -6 -186 -92 -761 -111 -986 -32 -110 39 -147 105 -83 152 28 21 57
15 38 -8 -46 -55 304 -101 639 -84 247 12 401 50 384 95 -6 17 11 18 38 4 16
-9 19 -7 19 9 0 15 -9 22 -35 27 l-35 6 0 58 c0 51 3 60 25 74 22 14 25 24 25
72 0 47 -3 57 -20 61 -25 7 -25 1 7 125 14 57 28 132 30 168 l3 65 -25 -75
c-13 -41 -36 -125 -51 -187 -26 -111 -26 -112 -57 -118 -192 -31 -522 -43
-727 -26 -155 13 -180 21 -180 52 0 78 -76 329 -155 510 -39 88 -153 306 -202
387 -18 29 -12 36 21 28 34 -8 81 -50 126 -111 44 -60 84 -80 136 -70 56 10
80 41 89 113 4 34 11 62 17 62 5 0 24 -32 41 -70 28 -63 36 -73 81 -95 37 -19
66 -25 113 -25 99 0 160 40 194 126 10 27 12 28 23 10 42 -69 72 -100 113
-118 59 -26 140 -21 209 12 42 22 51 32 64 71 18 52 46 99 60 99 6 0 10 -24
10 -53 0 -59 16 -89 60 -112 36 -19 40 -19 40 -1 0 8 -9 17 -19 21 -31 10 -50
49 -53 110 -4 73 -24 91 -63 55 l-25 -24 -33 30 c-17 17 -55 47 -84 68 -102
72 -205 209 -190 250 4 10 18 16 36 16 36 0 71 40 71 82 0 38 -40 78 -79 78
-29 0 -29 1 -28 54 1 72 -11 86 -79 86 -46 0 -56 -3 -70 -25z m105 -11 c20
-15 22 -22 16 -58 -13 -84 -14 -81 31 -78 45 3 74 -15 74 -48 0 -31 -28 -50
-76 -50 -39 0 -44 -3 -44 -23 0 -34 63 -156 105 -205 21 -24 73 -68 117 -99
86 -60 98 -76 98 -125 -1 -66 -63 -108 -162 -108 -87 0 -114 22 -168 137 -24
49 -45 82 -50 77 -4 -5 -20 -37 -33 -71 -34 -83 -63 -122 -103 -139 -79 -33
-188 -2 -218 60 -31 65 -23 79 90 154 113 75 227 224 236 308 3 28 2 29 -50
34 -53 6 -72 19 -72 51 0 33 24 48 80 51 49 3 55 5 52 23 -2 11 -6 34 -9 52
-4 23 0 36 16 52 25 25 39 26 70 5z m461 -1630 c0 -31 -4 -37 -37 -51 -57 -24
-159 -41 -323 -54 -220 -18 -583 10 -658 50 -16 9 -22 21 -22 47 0 36 1 36 33
30 97 -20 162 -26 362 -32 222 -7 378 2 530 30 114 22 115 21 115 -20z m-845
-125 c108 -13 529 -12 635 2 47 6 101 11 120 12 l35 2 3 -76 3 -77 -48 -10
c-226 -51 -659 -51 -855 -1 -36 9 -38 12 -38 52 0 23 3 59 7 80 5 36 8 38 32
33 14 -4 62 -11 106 -17z"/>
<path d="M1525 5975 c-16 -14 -25 -25 -19 -25 6 0 21 11 34 25 30 32 24 31
-15 0z"/>
<path d="M1990 5975 c13 -14 25 -25 27 -25 9 0 -33 49 -41 50 -5 0 1 -11 14
-25z"/>
<path d="M1920 2290 c0 -5 5 -10 11 -10 5 0 7 5 4 10 -3 6 -8 10 -11 10 -2 0
-4 -4 -4 -10z"/>
<path d="M1925 2160 c-3 -5 1 -10 9 -10 9 0 16 5 16 10 0 6 -4 10 -9 10 -6 0
-13 -4 -16 -10z"/>
<path d="M2075 740 c-3 -5 -2 -10 4 -10 5 0 13 5 16 10 3 6 2 10 -4 10 -5 0
-13 -4 -16 -10z"/>
<path d="M2015 730 c-3 -5 -1 -10 4 -10 6 0 11 5 11 10 0 6 -2 10 -4 10 -3 0
-8 -4 -11 -10z"/>
</g>
</svg>
