<?xml version="1.0" standalone="no"?>
<!DOCTYPE svg PUBLIC "-//W3C//DTD SVG 20010904//EN"
 "http://www.w3.org/TR/2001/REC-SVG-20010904/DTD/svg10.dtd">
<svg version="1.0" xmlns="http://www.w3.org/2000/svg"
 width="315.000000pt" height="687.000000pt" viewBox="0 0 315.000000 687.000000"
 preserveAspectRatio="xMidYMid meet">

<g transform="translate(0.000000,687.000000) scale(0.100000,-0.100000)"
fill="#000000" stroke="none">
<path d="M1435 6614 c-39 -11 -45 -32 -45 -167 0 -70 4 -136 10 -146 15 -28
-25 -57 -97 -71 -95 -19 -93 -23 -93 139 l0 141 -27 17 c-60 39 -152 55 -205
34 -13 -5 -41 -14 -63 -19 -99 -26 -244 -75 -292 -98 l-53 -26 0 -397 0 -397
29 -45 c15 -25 48 -62 72 -82 34 -27 48 -47 57 -82 14 -52 56 -99 121 -136 25
-14 58 -46 80 -79 52 -76 63 -158 50 -364 -5 -83 -14 -227 -20 -321 -5 -93
-14 -204 -19 -245 -5 -41 -14 -140 -20 -220 -6 -80 -15 -183 -21 -230 -5 -47
-14 -130 -20 -185 -16 -159 -19 -185 -30 -280 -65 -549 -92 -652 -193 -735
-24 -19 -53 -50 -65 -69 -23 -34 -24 -73 -5 -229 5 -41 1 -70 -17 -124 -27
-85 -62 -133 -205 -280 -110 -114 -178 -202 -205 -268 -24 -61 -18 -183 15
-281 l29 -85 -41 -54 c-49 -65 -62 -112 -62 -227 0 -177 27 -258 115 -349 72
-73 232 -171 370 -224 156 -61 249 -87 475 -131 376 -73 960 -73 1350 0 175
33 270 57 383 97 108 38 125 46 212 90 122 62 145 77 145 98 0 18 -1 18 -27 0
-34 -22 -129 -75 -163 -91 -66 -30 -117 -51 -140 -57 -14 -4 -34 -11 -45 -16
-84 -37 -342 -95 -540 -121 -221 -30 -742 -32 -945 -5 -443 60 -736 151 -950
296 -79 54 -149 127 -175 185 -27 58 -44 195 -25 195 7 0 39 -27 72 -59 33
-33 76 -67 94 -77 19 -10 34 -22 34 -26 0 -5 5 -8 11 -8 6 0 23 -8 37 -18 15
-10 54 -30 87 -44 317 -141 672 -209 1168 -224 432 -14 888 48 1197 163 158
58 310 141 310 169 0 20 -7 18 -64 -19 -83 -55 -233 -127 -262 -127 -8 0 -22
-4 -32 -10 -28 -15 -180 -57 -287 -78 -280 -56 -403 -67 -770 -67 -399 0 -554
16 -865 92 -339 82 -565 195 -685 343 -55 68 -58 153 -8 224 39 55 56 56 90 6
100 -149 253 -249 507 -331 51 -17 106 -30 281 -69 22 -5 81 -14 130 -20 50
-6 108 -15 130 -20 109 -24 668 -21 860 5 408 54 674 138 855 269 91 66 120
103 120 153 0 38 -12 58 -22 35 -6 -14 -129 -91 -192 -121 -128 -60 -301 -112
-486 -146 -274 -50 -662 -74 -924 -56 -345 24 -488 44 -681 96 -55 15 -113 30
-130 35 -174 46 -350 143 -444 245 -67 72 -94 143 -94 245 0 80 2 91 36 155
26 49 71 105 153 190 188 196 226 253 243 366 7 40 14 75 16 77 3 3 20 -7 39
-22 77 -58 223 -118 406 -166 51 -13 217 -38 348 -51 152 -16 582 -6 722 16
207 32 234 38 350 72 125 36 204 71 281 123 24 16 47 26 51 22 4 -4 12 -37 18
-74 17 -107 85 -210 239 -363 63 -62 71 -67 71 -45 -1 18 -31 56 -108 135
-144 148 -191 246 -178 371 19 180 19 171 -8 217 -14 23 -44 56 -65 72 -74 57
-122 183 -146 384 -2 20 -16 126 -30 236 -36 284 -43 345 -55 480 -6 66 -15
161 -21 210 -5 50 -14 155 -19 235 -6 80 -14 197 -20 260 -9 102 -16 200 -37
527 -4 63 -1 108 8 140 17 62 81 146 134 178 60 34 114 101 122 147 4 31 15
45 54 74 27 20 60 55 74 78 l25 43 0 406 0 407 -42 19 c-117 52 -282 101 -404
121 -63 10 -136 -7 -172 -40 -21 -20 -22 -29 -22 -161 0 -115 -3 -141 -15
-145 -20 -8 -142 16 -163 32 -14 10 -16 32 -13 166 2 134 1 157 -14 171 -14
15 -42 17 -194 17 -98 0 -225 2 -282 5 -57 2 -113 2 -124 -1z m541 -34 c27 0
38 -25 24 -51 -10 -18 -24 -19 -280 -19 -256 0 -270 1 -280 19 -13 25 -13 27
3 43 12 11 223 15 533 8z m-838 -53 c50 -17 41 -41 -20 -56 -29 -7 -62 -16
-73 -20 -11 -5 -59 -20 -107 -35 -47 -15 -95 -34 -107 -42 -31 -22 -12 -49 49
-69 49 -16 69 -45 31 -45 -58 0 -291 113 -291 141 0 8 57 43 85 51 11 4 52 16
90 28 213 66 266 74 343 47z m1376 4 c173 -52 268 -85 296 -103 l35 -21 -34
-28 c-55 -46 -220 -119 -269 -119 -37 0 -23 30 21 45 21 7 47 21 58 31 17 15
17 19 5 33 -8 9 -55 29 -103 45 -48 16 -96 33 -105 37 -10 5 -23 9 -29 9 -26
0 -119 32 -119 41 0 6 19 19 43 30 33 16 55 19 106 15 34 -3 77 -10 95 -15z
m-528 -65 c19 -27 19 -149 0 -165 -7 -6 -66 -16 -129 -23 -129 -12 -368 2
-393 23 -10 8 -14 33 -14 82 0 113 -12 109 278 105 228 -3 245 -4 258 -22z
m-806 -136 c0 -146 2 -151 43 -140 18 5 55 11 82 15 43 5 53 3 69 -14 16 -18
17 -25 8 -47 -7 -14 -12 -73 -12 -134 0 -60 -4 -111 -10 -115 -5 -3 -17 -1
-27 4 -10 5 -74 19 -143 31 -69 11 -129 25 -133 29 -4 4 -10 75 -13 157 -4 93
-10 153 -17 160 -7 7 -47 22 -89 34 -114 34 -106 46 62 99 123 39 163 49 173
44 4 -2 7 -58 7 -123z m1270 83 c114 -36 148 -53 137 -70 -3 -5 -41 -20 -84
-33 -43 -13 -81 -29 -85 -35 -4 -5 -8 -76 -8 -156 0 -105 -4 -150 -12 -157
-14 -11 -206 -49 -273 -54 l-40 -3 -3 115 c-1 63 -7 119 -12 124 -16 16 -11
35 13 51 20 13 33 13 100 2 65 -11 77 -11 82 1 3 7 5 70 5 139 l0 125 33 -7
c17 -4 84 -23 147 -42z m-1802 -72 c31 -21 69 -39 167 -79 l70 -29 3 -192 2
-192 34 -14 c45 -19 356 -74 421 -75 46 0 48 8 46 181 -1 122 3 170 13 188
l13 24 304 1 c251 1 307 -1 322 -13 15 -12 17 -35 17 -192 l0 -179 26 -6 c23
-6 140 8 304 36 30 5 80 18 110 27 l55 18 3 193 c2 189 3 193 25 201 12 5 49
20 82 32 33 13 86 38 117 56 31 18 59 33 63 33 3 0 4 -170 3 -378 -3 -374 -3
-378 -25 -406 -89 -112 -294 -178 -678 -218 -154 -16 -654 -16 -810 0 -421 43
-620 107 -706 224 l-29 41 0 362 c0 199 3 365 7 368 9 10 12 9 41 -12z m1013
-88 c93 -4 180 -2 242 6 86 11 98 11 121 -5 28 -17 33 -38 14 -50 -55 -34
-442 -46 -568 -18 -80 18 -96 36 -59 66 18 14 34 17 64 13 22 -3 106 -8 186
-12z m-663 -2 c15 -8 17 -26 16 -128 -1 -184 0 -180 -34 -198 -60 -31 -60 -31
-60 150 0 146 2 165 18 174 21 13 39 13 60 2z m1506 -1 l26 -10 0 -165 c0
-143 -2 -165 -16 -165 -19 0 -56 19 -66 34 -4 6 -8 77 -8 158 0 163 3 171 64
148z m-1309 -350 c17 -5 58 -12 92 -16 70 -7 86 -20 81 -61 -5 -43 -33 -43
-293 3 -105 18 -135 27 -135 38 0 12 55 38 105 49 25 6 110 -2 150 -13z m1246
3 c65 -20 77 -29 62 -44 -21 -21 -308 -72 -375 -67 -40 3 -43 5 -46 33 -1 17
1 35 5 41 5 7 46 17 93 23 47 7 105 16 130 20 67 13 73 12 131 -6z m-1612
-482 c223 -74 494 -106 911 -106 212 0 387 10 525 29 193 27 225 34 353 77 73
24 89 17 66 -26 -51 -99 -185 -159 -464 -207 -111 -20 -163 -22 -470 -22 -381
-1 -487 9 -695 63 -171 45 -295 124 -295 188 0 28 0 28 69 4z m246 -220 c44
-11 147 -29 228 -41 135 -20 177 -21 475 -17 334 5 429 14 637 61 38 9 71 16
72 16 2 0 3 -6 3 -14 0 -22 -99 -66 -186 -82 -242 -45 -275 -47 -589 -48 -252
0 -328 3 -405 17 -52 9 -119 21 -149 27 -66 11 -149 38 -178 56 -28 18 -32 58
-5 50 9 -3 53 -14 97 -25z m70 -101 c191 -43 274 -50 563 -50 277 0 381 8 576
46 72 14 136 22 143 20 10 -4 13 -36 12 -138 0 -73 4 -191 10 -263 6 -71 15
-197 21 -280 14 -213 66 -783 94 -1035 43 -385 86 -615 129 -702 15 -31 21
-62 22 -110 0 -65 -1 -68 -40 -109 -43 -45 -167 -109 -245 -127 -25 -6 -72
-17 -105 -25 -141 -34 -578 -71 -670 -57 -27 4 -53 6 -57 4 -14 -9 -285 18
-383 37 -244 47 -379 100 -440 172 -32 37 -35 46 -35 102 0 57 6 81 50 190 15
36 58 316 80 510 5 44 15 139 24 210 21 174 50 467 66 660 30 367 54 717 55
825 1 69 3 128 3 133 2 8 60 2 127 -13z m-445 -2526 c0 -33 33 -97 67 -129 49
-46 110 -73 278 -123 312 -92 965 -100 1315 -16 254 61 390 153 390 263 0 43
13 45 50 8 53 -53 65 -117 34 -183 -48 -102 -293 -208 -579 -252 -38 -6 -106
-17 -150 -24 -110 -18 -670 -17 -785 0 -313 48 -488 103 -621 193 -72 49 -99
91 -99 155 0 52 21 95 62 125 27 21 38 16 38 -17z m-307 -1423 c38 -25 67 -40
172 -86 44 -20 185 -65 201 -65 8 0 22 -4 32 -9 25 -14 181 -48 297 -65 318
-47 618 -61 885 -41 480 35 751 96 1009 227 63 31 117 56 119 53 8 -7 -23 -43
-73 -84 -41 -34 -173 -105 -260 -141 -111 -45 -331 -96 -560 -130 -256 -38
-711 -38 -1000 0 -134 18 -390 74 -450 99 -11 5 -54 21 -95 37 -119 44 -222
106 -297 177 -65 63 -53 79 20 28z"/>
<path d="M1216 6074 c-62 -13 -116 -29 -125 -39 -15 -15 -12 -16 39 -9 30 4
62 10 70 14 8 4 38 11 67 15 48 6 85 28 66 37 -4 2 -57 -6 -117 -18z"/>
<path d="M2110 6086 c0 -10 17 -18 53 -25 28 -5 66 -12 82 -16 82 -17 129 -24
133 -20 13 13 -24 33 -71 39 -66 8 -152 23 -177 31 -14 4 -20 2 -20 -9z"/>
</g>
</svg>
