<svg width="229" height="112" viewBox="0 0 229 112" fill="none" xmlns="http://www.w3.org/2000/svg">
<path d="M23.2386 1.94737C23.0965 3.00958 23.0965 4.03638 23.2031 4.21341C23.3097 4.42585 23.3097 4.81533 23.2031 5.13399C23.0255 5.59428 22.3861 5.7005 20.0417 5.7005C18.1591 5.7005 16.9869 5.84213 16.8093 6.12538C16.3475 6.86893 16.2054 11.578 16.6317 12.357C16.9869 13.0297 17.3776 13.1359 20.1483 13.2068L23.2386 13.313L23.3452 15.402C23.4162 16.535 23.2741 17.668 23.0965 17.8451C22.8834 18.0575 19.7931 19.2967 16.2054 20.5714C10.7707 22.5542 9.74061 23.0499 9.63404 23.6872C9.563 24.1121 10.6997 27.4403 12.1916 31.0872C13.6479 34.7695 14.9622 38.1332 15.0688 38.6289C15.2464 39.4078 15.0332 39.6557 13.3638 40.6471C11.3746 41.8509 10.9838 42.5236 10.9838 45.0729C10.9838 46.737 11.5522 47.3744 13.6479 48.0117L15.6016 48.649V50.4902C15.6016 53.9955 13.719 66.4233 12.3692 71.6635C11.2325 76.1247 10.6997 77.1869 9.24331 77.8597C7.68039 78.6032 7.46726 79.5946 8.46185 82.0731L9.13675 83.808L8.0356 85.2243C7.39622 86.0033 5.69121 87.9506 4.23484 89.5793C0.895861 93.2262 0.718255 93.5803 1.10899 95.4215C1.89045 98.7851 1.85493 99.4933 1.03795 100.166C0.363045 100.697 0.185439 101.264 0.0433552 103.459C-0.0632081 105.619 0.00783409 106.185 0.469608 106.575C0.966903 107 5.40704 107.07 27.0749 107C44.5868 106.929 53.2184 106.787 53.5026 106.539C53.7867 106.291 53.9643 105.265 53.9643 103.707C53.9643 101.547 53.8578 101.157 53.0408 100.343L52.0817 99.4224L52.579 96.9086C52.8277 95.5277 53.0408 94.1114 52.9698 93.7219C52.8987 93.1554 47.2509 86.4635 45.5103 84.9056L44.7999 84.2683L45.6524 82.1085L46.5404 79.9841L41.0347 74.6376C38.0154 71.6635 35.0671 68.5477 34.4633 67.6979C32.6162 65.0778 33.0069 63.4845 36.3814 60.2271C37.4826 59.1649 38.5482 57.9964 38.7258 57.6778C38.9389 57.2529 38.8324 55.9074 38.3351 53.4644C37.9443 51.517 37.6957 49.6404 37.8023 49.2863C37.9088 48.9677 38.8679 48.4012 40.0046 48.0117L42.0648 47.3036L42.1713 44.648L42.2779 41.9925L40.6084 40.9303C39.6849 40.3284 38.7613 39.7619 38.5837 39.6557C38.4061 39.5495 39.6494 35.9025 41.3544 31.5475C43.9829 24.9264 44.3737 23.6164 43.9829 23.1915C43.6988 22.9436 41.1412 21.846 38.2996 20.7838C35.4579 19.7216 32.5451 18.624 31.7992 18.3053L30.4849 17.7742L30.5915 15.5436L30.698 13.313L33.7173 13.2068C35.5644 13.1359 36.8077 12.9235 36.9853 12.6757C37.3405 12.1091 37.3405 6.7273 36.9853 6.16079C36.8077 5.91294 35.5644 5.7005 33.7173 5.62969L30.698 5.52347L30.5204 2.86795L30.3428 0.212439L26.8973 0.106218L23.4873 -2.58714e-06L23.2386 1.94737Z" fill="white"/>
<path d="M63.3063 43.3026C63.1287 43.7629 62.4538 46.0998 61.8145 48.5429C61.1751 50.9859 59.399 57.6778 57.8716 63.4137C52.4014 83.8435 52.6145 82.8875 53.396 83.454C54.284 84.0913 57.1612 84.0913 58.0137 83.4894C58.44 83.1708 59.1859 80.8693 60.3581 76.5143C61.2816 72.9028 63.0577 66.2817 64.2654 61.8204C65.4731 57.3238 66.6098 53.0749 66.7874 52.3314C66.965 51.5878 67.6044 49.3218 68.1727 47.2682C68.7411 45.25 69.1318 43.338 69.0252 43.0548C68.8476 42.6653 68.1727 42.5237 66.2546 42.5237C63.9102 42.5237 63.626 42.5945 63.3063 43.3026Z" fill="white"/>
<path d="M73.7496 51.0567C73.2523 51.34 73.1458 51.9065 73.1458 54.1017V56.7926L76.911 60.7936C78.9712 63.0242 80.6052 64.9716 80.5341 65.1132C80.4986 65.2903 78.8646 67.096 76.9465 69.1142L73.4654 72.7965L73.572 75.8061C73.7141 80.3382 73.8917 80.3028 81.6353 72.4779C86.9279 67.096 88.1001 65.7506 87.9936 65.0424C87.9225 64.5113 85.6136 61.8558 81.4932 57.6778C77.9766 54.1017 74.9218 51.0567 74.7442 50.9505C74.5311 50.8089 74.1048 50.8797 73.7496 51.0567Z" fill="white"/>
<path d="M44.0184 57.8194C40.6084 61.3247 37.6601 64.5113 37.4825 64.8653C37.1984 65.4673 38.0864 66.4941 43.6987 72.1237C47.2864 75.6998 50.5188 78.6386 50.874 78.6386C51.6555 78.6386 51.7265 78.4262 52.0107 75.1333L52.2593 72.4778L48.6717 69.1142C46.6825 67.2376 45.0841 65.5027 45.0841 65.2548C45.0841 64.9716 46.6825 62.918 48.6362 60.6873C52.0817 56.7218 52.1883 56.5447 52.1883 54.8806C52.1883 52.7208 51.691 51.3753 50.874 51.4107C50.5188 51.4107 47.4284 54.2787 44.0184 57.8194Z" fill="white"/>
<path d="M102.631 57.7391H97.9912C96.0178 57.7391 94.4845 57.1925 93.3912 56.0991C92.3245 55.0058 91.7912 53.4858 91.7912 51.5391V38.2191C91.7912 36.2458 92.3245 34.7258 93.3912 33.6591C94.4845 32.5658 96.0178 32.0191 97.9912 32.0191H102.631C104.578 32.0191 106.098 32.5658 107.191 33.6591C108.285 34.7258 108.831 36.2458 108.831 38.2191V40.1391C108.831 40.6191 108.591 40.8591 108.111 40.8591H105.591C105.138 40.8591 104.911 40.6191 104.911 40.1391V38.3791C104.911 36.4058 103.951 35.4191 102.031 35.4191H98.5512C96.6312 35.4191 95.6712 36.4058 95.6712 38.3791V51.3791C95.6712 53.3525 96.6312 54.3391 98.5512 54.3391H102.031C103.951 54.3391 104.911 53.3525 104.911 51.3791V49.6191C104.911 49.1391 105.138 48.8991 105.591 48.8991H108.111C108.591 48.8991 108.831 49.1391 108.831 49.6191V51.5391C108.831 53.4858 108.285 55.0058 107.191 56.0991C106.098 57.1925 104.578 57.7391 102.631 57.7391ZM116.993 57.7391H114.473C114.019 57.7391 113.793 57.5125 113.793 57.0591V32.6991C113.793 32.2458 114.019 32.0191 114.473 32.0191H116.993C117.446 32.0191 117.673 32.2458 117.673 32.6991V42.6991C117.673 42.9658 117.833 43.0991 118.153 43.0991H126.593C126.859 43.0991 126.993 42.9658 126.993 42.6991V32.6991C126.993 32.2458 127.219 32.0191 127.673 32.0191H130.233C130.686 32.0191 130.913 32.2458 130.913 32.6991V57.0591C130.913 57.5125 130.686 57.7391 130.233 57.7391H127.673C127.219 57.7391 126.993 57.5125 126.993 57.0591V46.9391C126.993 46.6725 126.859 46.5391 126.593 46.5391H118.153C117.833 46.5391 117.673 46.6725 117.673 46.9391V57.0591C117.673 57.5125 117.446 57.7391 116.993 57.7391ZM150.241 57.7391H137.441C136.988 57.7391 136.761 57.5125 136.761 57.0591V32.6991C136.761 32.2458 136.988 32.0191 137.441 32.0191H150.241C150.668 32.0191 150.881 32.2458 150.881 32.6991V34.7391C150.881 35.1925 150.668 35.4191 150.241 35.4191H141.121C140.801 35.4191 140.641 35.5525 140.641 35.8191V42.5791C140.641 42.8458 140.801 42.9791 141.121 42.9791H148.841C149.321 42.9791 149.561 43.2058 149.561 43.6591V45.6991C149.561 46.1525 149.321 46.3791 148.841 46.3791H141.121C140.801 46.3791 140.641 46.5125 140.641 46.7791V53.8991C140.641 54.1925 140.801 54.3391 141.121 54.3391H150.241C150.668 54.3391 150.881 54.5658 150.881 55.0191V57.0591C150.881 57.5125 150.668 57.7391 150.241 57.7391ZM155.5 51.4991V50.4591C155.5 50.0058 155.727 49.7791 156.18 49.7791H158.74C159.194 49.7791 159.42 50.0058 159.42 50.4591V51.1791C159.42 52.2991 159.66 53.1125 160.14 53.6191C160.647 54.0991 161.474 54.3391 162.62 54.3391H165.38C166.527 54.3391 167.354 54.0858 167.86 53.5791C168.367 53.0458 168.62 52.1925 168.62 51.0191V50.0991C168.62 49.2458 168.287 48.5791 167.62 48.0991C166.98 47.5925 166.18 47.2725 165.22 47.1391C164.26 46.9791 163.207 46.7658 162.06 46.4991C160.914 46.2325 159.86 45.9258 158.9 45.5791C157.94 45.2325 157.127 44.5791 156.46 43.6191C155.82 42.6591 155.5 41.4325 155.5 39.9391V38.2591C155.5 36.3125 156.047 34.7925 157.14 33.6991C158.26 32.5791 159.794 32.0191 161.74 32.0191H165.98C167.954 32.0191 169.487 32.5791 170.58 33.6991C171.7 34.7925 172.26 36.3125 172.26 38.2591V39.1391C172.26 39.5925 172.034 39.8191 171.58 39.8191H169.02C168.567 39.8191 168.34 39.5925 168.34 39.1391V38.6191C168.34 37.4725 168.087 36.6591 167.58 36.1791C167.1 35.6725 166.287 35.4191 165.14 35.4191H162.62C161.474 35.4191 160.647 35.6858 160.14 36.2191C159.66 36.7258 159.42 37.6058 159.42 38.8591V40.0991C159.42 41.2991 160.287 42.1125 162.02 42.5391C162.794 42.7258 163.634 42.8858 164.54 43.0191C165.474 43.1525 166.407 43.3525 167.34 43.6191C168.274 43.8858 169.127 44.2458 169.9 44.6991C170.674 45.1258 171.3 45.7925 171.78 46.6991C172.26 47.5791 172.5 48.6591 172.5 49.9391V51.4991C172.5 53.4458 171.94 54.9791 170.82 56.0991C169.727 57.1925 168.207 57.7391 166.26 57.7391H161.78C159.834 57.7391 158.3 57.1925 157.18 56.0991C156.06 54.9791 155.5 53.4458 155.5 51.4991ZM177.414 51.4991V50.4591C177.414 50.0058 177.641 49.7791 178.094 49.7791H180.654C181.108 49.7791 181.334 50.0058 181.334 50.4591V51.1791C181.334 52.2991 181.574 53.1125 182.054 53.6191C182.561 54.0991 183.388 54.3391 184.534 54.3391H187.294C188.441 54.3391 189.268 54.0858 189.774 53.5791C190.281 53.0458 190.534 52.1925 190.534 51.0191V50.0991C190.534 49.2458 190.201 48.5791 189.534 48.0991C188.894 47.5925 188.094 47.2725 187.134 47.1391C186.174 46.9791 185.121 46.7658 183.974 46.4991C182.828 46.2325 181.774 45.9258 180.814 45.5791C179.854 45.2325 179.041 44.5791 178.374 43.6191C177.734 42.6591 177.414 41.4325 177.414 39.9391V38.2591C177.414 36.3125 177.961 34.7925 179.054 33.6991C180.174 32.5791 181.708 32.0191 183.654 32.0191H187.894C189.868 32.0191 191.401 32.5791 192.494 33.6991C193.614 34.7925 194.174 36.3125 194.174 38.2591V39.1391C194.174 39.5925 193.948 39.8191 193.494 39.8191H190.934C190.481 39.8191 190.254 39.5925 190.254 39.1391V38.6191C190.254 37.4725 190.001 36.6591 189.494 36.1791C189.014 35.6725 188.201 35.4191 187.054 35.4191H184.534C183.388 35.4191 182.561 35.6858 182.054 36.2191C181.574 36.7258 181.334 37.6058 181.334 38.8591V40.0991C181.334 41.2991 182.201 42.1125 183.934 42.5391C184.708 42.7258 185.548 42.8858 186.454 43.0191C187.388 43.1525 188.321 43.3525 189.254 43.6191C190.188 43.8858 191.041 44.2458 191.814 44.6991C192.588 45.1258 193.214 45.7925 193.694 46.6991C194.174 47.5791 194.414 48.6591 194.414 49.9391V51.4991C194.414 53.4458 193.854 54.9791 192.734 56.0991C191.641 57.1925 190.121 57.7391 188.174 57.7391H183.694C181.748 57.7391 180.214 57.1925 179.094 56.0991C177.974 54.9791 177.414 53.4458 177.414 51.4991ZM102.631 97.7391H97.9912C96.0178 97.7391 94.4845 97.1925 93.3912 96.0991C92.3245 95.0058 91.7912 93.4858 91.7912 91.5391V78.2191C91.7912 76.2458 92.3245 74.7258 93.3912 73.6591C94.4845 72.5658 96.0178 72.0191 97.9912 72.0191H102.631C104.578 72.0191 106.098 72.5658 107.191 73.6591C108.285 74.7258 108.831 76.2458 108.831 78.2191V80.1391C108.831 80.6191 108.591 80.8591 108.111 80.8591H105.591C105.138 80.8591 104.911 80.6191 104.911 80.1391V78.3791C104.911 76.4058 103.951 75.4191 102.031 75.4191H98.5512C96.6312 75.4191 95.6712 76.4058 95.6712 78.3791V91.3791C95.6712 93.3525 96.6312 94.3391 98.5512 94.3391H102.031C103.951 94.3391 104.911 93.3525 104.911 91.3791V89.6191C104.911 89.1391 105.138 88.8991 105.591 88.8991H108.111C108.591 88.8991 108.831 89.1391 108.831 89.6191V91.5391C108.831 93.4858 108.285 95.0058 107.191 96.0991C106.098 97.1925 104.578 97.7391 102.631 97.7391ZM120.153 94.3391H123.633C125.579 94.3391 126.553 93.3525 126.553 91.3791V78.3791C126.553 76.4058 125.579 75.4191 123.633 75.4191H120.153C118.233 75.4191 117.273 76.4058 117.273 78.3791V91.3791C117.273 93.3525 118.233 94.3391 120.153 94.3391ZM124.233 97.7391H119.593C117.619 97.7391 116.086 97.1925 114.993 96.0991C113.926 95.0058 113.393 93.4858 113.393 91.5391V78.2191C113.393 76.2458 113.926 74.7258 114.993 73.6591C116.086 72.5658 117.619 72.0191 119.593 72.0191H124.233C126.206 72.0191 127.739 72.5658 128.833 73.6591C129.926 74.7258 130.473 76.2458 130.473 78.2191V91.5391C130.473 93.4858 129.926 95.0058 128.833 96.0991C127.739 97.1925 126.206 97.7391 124.233 97.7391ZM140.183 94.3391H145.823C147.743 94.3391 148.703 93.3525 148.703 91.3791V78.3791C148.703 76.4058 147.743 75.4191 145.823 75.4191H140.183C139.89 75.4191 139.743 75.5525 139.743 75.8191V93.8991C139.743 94.1925 139.89 94.3391 140.183 94.3391ZM135.863 97.0591V72.6991C135.863 72.2458 136.09 72.0191 136.543 72.0191H146.383C148.33 72.0191 149.85 72.5658 150.943 73.6591C152.063 74.7258 152.623 76.2458 152.623 78.2191V91.5391C152.623 93.4858 152.063 95.0058 150.943 96.0991C149.85 97.1925 148.33 97.7391 146.383 97.7391H136.543C136.09 97.7391 135.863 97.5125 135.863 97.0591ZM171.531 97.7391H158.731C158.277 97.7391 158.051 97.5125 158.051 97.0591V72.6991C158.051 72.2458 158.277 72.0191 158.731 72.0191H171.531C171.957 72.0191 172.171 72.2458 172.171 72.6991V74.7391C172.171 75.1925 171.957 75.4191 171.531 75.4191H162.411C162.091 75.4191 161.931 75.5525 161.931 75.8191V82.5791C161.931 82.8458 162.091 82.9791 162.411 82.9791H170.131C170.611 82.9791 170.851 83.2058 170.851 83.6591V85.6991C170.851 86.1525 170.611 86.3791 170.131 86.3791H162.411C162.091 86.3791 161.931 86.5125 161.931 86.7791V93.8991C161.931 94.1925 162.091 94.3391 162.411 94.3391H171.531C171.957 94.3391 172.171 94.5658 172.171 95.0191V97.0591C172.171 97.5125 171.957 97.7391 171.531 97.7391Z" fill="white"/>
</svg>
