<?xml version="1.0" standalone="no"?>
<!DOCTYPE svg PUBLIC "-//W3C//DTD SVG 20010904//EN"
 "http://www.w3.org/TR/2001/REC-SVG-20010904/DTD/svg10.dtd">
<svg version="1.0" xmlns="http://www.w3.org/2000/svg"
 width="1536.000000pt" height="1024.000000pt" viewBox="0 0 1536.000000 1024.000000"
 preserveAspectRatio="xMidYMid meet">

<g transform="translate(0.000000,1024.000000) scale(0.100000,-0.100000)"
fill="#000000" stroke="none">
<path d="M7312 9044 c-161 -47 -279 -123 -367 -236 -87 -112 -137 -241 -153
-399 l-7 -74 205 -22 c113 -12 248 -25 302 -29 l96 -6 7 58 c13 109 73 177
167 190 112 15 213 -57 233 -168 17 -90 -52 -166 -243 -267 -258 -137 -302
-203 -302 -452 l0 -116 113 -6 c61 -4 191 -7 288 -7 l176 0 6 49 c12 101 60
158 222 266 122 80 233 189 277 271 43 80 59 156 59 279 0 199 -53 329 -190
466 -177 177 -326 230 -645 228 -141 0 -171 -3 -244 -25z m474 -39 c195 -33
407 -182 489 -345 54 -105 78 -284 56 -402 -29 -147 -132 -281 -290 -378 -154
-95 -229 -173 -252 -266 -8 -30 -17 -44 -32 -48 -29 -8 -153 -7 -322 1 l-138
6 6 106 c3 58 11 124 17 146 19 65 105 139 247 214 146 77 207 121 248 180 27
38 30 51 30 114 0 92 -29 155 -88 196 -58 38 -99 51 -172 51 -118 0 -211 -73
-236 -186 -12 -53 -13 -54 -48 -54 -20 0 -129 9 -243 22 l-208 22 0 36 c0 20
9 71 20 114 63 247 257 423 521 475 74 15 299 12 395 -4z"/>
<path d="M4525 8443 c-90 -12 -206 -48 -278 -85 -149 -78 -271 -228 -312 -384
-28 -108 -16 -304 27 -426 l13 -37 170 68 c157 63 285 117 292 125 2 1 -1 25
-6 52 -13 66 0 119 39 159 54 55 134 69 205 35 49 -24 85 -81 85 -134 0 -56
-30 -104 -141 -228 -130 -144 -153 -191 -146 -297 4 -68 43 -214 65 -249 7
-10 34 -6 133 23 229 67 359 111 359 122 0 2 -7 18 -16 35 -11 22 -15 48 -12
85 4 47 15 68 102 198 134 198 151 240 151 380 0 123 -12 171 -73 290 -45 86
-137 182 -212 218 -80 39 -178 57 -305 55 -60 0 -123 -3 -140 -5z m296 -57
c92 -20 152 -51 219 -112 139 -129 202 -366 140 -529 -27 -69 -47 -104 -142
-237 -93 -130 -115 -202 -84 -279 5 -12 -10 -21 -71 -42 -81 -27 -288 -87
-301 -87 -11 0 -52 130 -59 188 -8 74 25 135 147 272 122 138 144 175 144 250
0 60 -16 99 -65 155 -37 42 -120 70 -177 60 -66 -11 -138 -52 -168 -97 -26
-37 -29 -50 -29 -119 l0 -77 -178 -71 c-98 -39 -182 -71 -186 -71 -12 0 -41
162 -41 225 1 283 211 511 525 570 93 18 245 18 326 1z"/>
<path d="M10350 8275 c-231 -46 -398 -199 -484 -443 -14 -39 -14 -43 2 -49 9
-4 119 -46 244 -94 l227 -86 31 64 c39 78 74 103 145 103 147 0 206 -164 96
-263 -42 -38 -109 -62 -255 -91 -98 -20 -180 -60 -218 -107 -25 -31 -108 -226
-108 -255 0 -10 195 -87 382 -150 l96 -32 6 33 c13 68 73 111 234 169 218 78
336 174 407 329 68 147 68 357 1 492 -66 132 -199 243 -388 324 -161 69 -277
84 -418 56z m257 -60 c79 -18 244 -87 306 -127 62 -40 147 -134 185 -206 91
-173 60 -426 -72 -579 -53 -61 -166 -127 -307 -179 -68 -25 -135 -52 -150 -59
-31 -17 -85 -76 -94 -104 -6 -19 -9 -19 -98 14 -180 65 -278 108 -274 119 3 6
19 47 36 92 49 126 71 141 292 189 68 15 143 36 167 47 125 59 165 254 70 345
-43 42 -96 63 -155 63 -86 -1 -141 -38 -199 -136 -9 -16 -24 -12 -193 52 -101
38 -185 75 -188 82 -3 7 12 48 33 90 118 234 384 358 641 297z"/>
<path d="M7463 7365 c-98 -27 -158 -79 -211 -179 -23 -44 -27 -63 -27 -136 0
-71 4 -94 26 -140 74 -157 202 -213 370 -160 80 25 154 80 194 144 29 47 30
54 30 160 0 100 -3 116 -27 162 -30 57 -94 119 -145 140 -52 22 -150 26 -210
9z m192 -64 c50 -22 108 -86 126 -137 22 -63 18 -181 -8 -230 -56 -105 -195
-168 -313 -143 -143 31 -229 228 -161 370 28 58 97 127 147 144 56 20 161 18
209 -4z"/>
<path d="M4857 7010 c-95 -24 -172 -92 -201 -178 -24 -70 -21 -177 8 -237 26
-58 101 -128 153 -146 52 -17 169 -7 224 20 67 32 124 84 149 137 57 118 -21
317 -152 385 -44 23 -129 32 -181 19z m146 -64 c93 -39 170 -187 146 -282 -23
-92 -129 -167 -234 -166 -78 1 -118 17 -163 66 -73 79 -80 215 -16 307 52 75
181 111 267 75z"/>
<path d="M10080 6851 c-135 -44 -200 -139 -200 -290 1 -107 50 -190 138 -232
37 -19 64 -23 132 -23 73 0 93 4 142 27 67 33 124 94 139 151 14 50 6 160 -14
209 -20 46 -86 110 -145 139 -50 24 -147 34 -192 19z m165 -70 c90 -40 135
-114 135 -222 -1 -121 -93 -199 -235 -199 -131 1 -229 112 -210 239 16 110 66
170 165 202 33 11 95 2 145 -20z"/>
<path d="M7444 6551 c-53 -13 -54 -16 -54 -117 0 -70 -3 -94 -12 -93 -54 7
-149 -3 -162 -17 -17 -16 -22 -120 -10 -182 8 -38 42 -52 125 -52 l59 0 0 -42
c0 -40 -3 -45 -40 -66 -52 -30 -74 -65 -75 -121 l-1 -45 -115 -26 c-187 -42
-244 -80 -275 -186 -26 -91 -6 -159 118 -409 72 -143 128 -272 128 -293 0 -5
-14 -15 -31 -22 -55 -23 -85 -101 -59 -150 9 -16 4 -26 -30 -60 -22 -22 -40
-44 -40 -50 0 -5 -17 -18 -38 -29 -111 -57 -144 -175 -73 -262 34 -41 122 -90
204 -114 31 -9 57 -17 57 -18 0 -1 11 -58 25 -127 80 -411 44 -767 -135 -1339
-33 -105 -60 -193 -60 -196 0 -2 -7 -2 -15 1 -8 4 -40 -6 -71 -21 -91 -45
-118 -117 -70 -187 20 -30 22 -41 16 -90 -12 -83 -43 -133 -154 -243 -125
-123 -151 -170 -151 -270 0 -58 5 -78 27 -116 l28 -47 -24 -15 c-34 -22 -65
-93 -72 -163 -9 -83 16 -138 87 -194 146 -115 382 -194 724 -242 121 -17 557
-17 650 0 340 62 511 124 623 227 66 60 82 94 82 177 0 78 -15 132 -46 174
-23 30 -23 33 -9 67 8 20 15 66 15 105 0 99 -29 151 -155 276 -116 115 -132
140 -144 228 -7 54 -6 66 10 87 23 28 33 80 24 119 -10 46 -61 90 -126 110
l-57 17 -61 205 c-123 418 -151 566 -158 858 -6 211 4 344 36 502 l17 84 60
21 c164 57 251 153 230 257 -10 49 -44 95 -85 115 -23 11 -46 32 -57 52 -10
19 -35 45 -55 58 -37 24 -37 25 -32 82 5 57 5 57 -36 93 l-42 36 92 218 c167
399 173 418 149 506 -28 98 -143 160 -342 184 l-58 6 0 40 c0 54 -31 102 -80
125 -38 17 -39 20 -40 66 l0 47 63 0 c35 0 67 3 71 8 4 4 13 7 19 7 21 0 39
76 34 145 -4 54 -9 68 -32 88 -25 21 -34 23 -90 17 l-62 -7 -5 86 c-6 113 -12
119 -120 122 -46 2 -97 0 -114 -5z m178 -103 c1 -29 2 -60 4 -68 1 -8 2 -30 3
-47 l1 -33 84 0 c100 0 112 -8 102 -76 -11 -82 -15 -85 -110 -78 l-84 7 4 -99
c4 -98 4 -99 31 -108 75 -24 111 -79 78 -117 -60 -65 -370 -65 -405 1 -5 10
-10 28 -10 40 0 29 53 80 82 80 38 0 49 31 42 119 l-7 78 -87 -5 -87 -5 -6 33
c-4 18 -7 52 -7 76 l0 44 77 0 c106 0 113 7 113 122 l0 88 90 0 90 0 2 -52z
m-280 -688 c108 -47 305 -48 385 0 42 25 53 25 128 1 33 -11 91 -27 129 -37
159 -39 210 -139 145 -282 -12 -25 -49 -113 -84 -196 -109 -261 -154 -359
-167 -367 -72 -45 -471 -65 -613 -31 l-70 17 -36 100 c-20 55 -78 188 -129
295 -84 174 -94 202 -98 262 -8 127 45 177 233 217 55 12 104 26 110 32 12 12
16 12 67 -11z m-157 -926 c98 -64 506 -72 686 -13 61 20 62 20 88 1 14 -10 27
-30 29 -44 2 -20 -5 -29 -45 -50 -85 -47 -193 -62 -423 -63 -223 0 -313 13
-400 58 -57 29 -62 54 -20 96 36 35 50 38 85 15z m47 -200 c101 -22 380 -30
504 -15 54 7 132 24 173 37 70 23 75 24 100 8 77 -49 102 -102 64 -137 -24
-21 -153 -64 -233 -77 -36 -6 -155 -14 -265 -17 -158 -4 -224 -2 -313 11 -127
19 -230 48 -261 74 l-21 17 21 44 c12 24 40 56 62 72 37 27 41 28 68 14 15 -8
61 -22 101 -31z m-265 -86 c-2 -7 2 -25 9 -39 37 -74 338 -127 659 -116 266 9
467 66 494 139 7 19 8 19 38 -6 104 -88 35 -217 -144 -269 -110 -33 -274 -50
-478 -51 -223 -1 -319 10 -460 55 -206 65 -267 160 -168 261 37 38 59 49 50
26z m441 -390 c127 -9 199 -9 322 0 88 7 167 15 176 19 14 5 16 3 10 -13 -4
-10 -17 -79 -28 -154 -35 -215 -29 -571 12 -770 50 -245 84 -375 171 -658 26
-82 39 -141 35 -156 -13 -52 -119 -89 -352 -122 -263 -37 -652 15 -751 101
l-37 32 67 199 c201 598 251 1022 167 1430 -26 128 -27 125 13 113 17 -5 105
-14 195 -21z m-491 -1695 c-23 -115 225 -207 593 -220 222 -8 444 28 570 92
59 30 80 58 80 107 0 21 2 38 5 38 17 0 86 -43 99 -62 22 -31 20 -71 -4 -99
-10 -13 -19 -21 -20 -18 0 4 -17 -10 -38 -31 -41 -41 -129 -74 -288 -107 -102
-21 -524 -24 -659 -4 -214 32 -435 151 -435 234 0 23 36 64 75 85 28 16 28 15
22 -15z m6 -242 c97 -54 235 -89 449 -116 165 -20 296 -19 472 5 207 28 296
53 368 102 l26 18 7 -63 c4 -34 14 -75 22 -91 8 -16 63 -76 122 -135 118 -117
151 -170 151 -244 0 -118 -74 -179 -312 -257 -115 -38 -208 -55 -417 -75 -522
-51 -1157 91 -1242 278 -24 54 -24 121 1 175 11 25 65 90 129 155 116 119 146
165 157 234 3 24 8 43 10 43 2 0 28 -13 57 -29z m-308 -701 c11 -18 156 -86
240 -113 303 -98 837 -128 1180 -66 177 32 376 100 452 155 31 23 32 23 55 5
21 -18 23 -28 26 -126 l4 -107 -54 -52 c-88 -85 -231 -142 -511 -202 -104 -22
-154 -27 -345 -31 -244 -6 -323 1 -567 48 -231 44 -386 103 -503 191 -57 43
-82 85 -82 141 0 88 77 202 105 157z"/>
<path d="M8075 5586 c-89 -40 -397 -86 -580 -86 -215 0 -450 35 -512 75 -20
14 -23 14 -23 0 0 -19 70 -54 140 -71 260 -60 698 -46 914 28 97 33 119 45
110 59 -7 12 -13 11 -49 -5z"/>
<path d="M9925 5953 c-32 -8 -74 -42 -90 -73 -31 -59 -10 -153 40 -186 l26
-17 -85 -86 c-234 -237 -406 -549 -406 -739 0 -106 48 -232 146 -385 l44 -67
-20 -33 c-26 -42 -25 -78 2 -112 17 -22 19 -31 10 -44 -6 -9 -30 -45 -52 -81
-31 -49 -51 -69 -80 -82 -49 -20 -80 -69 -80 -125 0 -78 73 -136 220 -178 l75
-21 -1 -209 c-1 -233 -15 -363 -66 -585 -29 -131 -90 -323 -109 -346 -5 -7
-26 -15 -45 -19 -19 -3 -53 -22 -74 -41 -48 -44 -59 -87 -35 -137 15 -33 15
-42 1 -118 -18 -98 -35 -124 -149 -242 -103 -105 -137 -167 -137 -246 1 -31 7
-69 14 -86 12 -28 11 -32 -12 -51 -21 -17 -27 -34 -33 -90 -13 -118 -11 -282
5 -312 40 -77 234 -165 474 -216 327 -69 726 -71 986 -5 179 46 358 141 417
222 29 40 29 41 29 179 0 145 -10 190 -50 233 -18 19 -19 23 -4 70 21 68 13
143 -22 203 -15 26 -74 93 -131 149 -78 77 -110 117 -128 158 -30 67 -31 91
-5 130 40 60 10 149 -62 184 -24 11 -52 21 -60 21 -23 0 -50 88 -108 352 -52
237 -80 468 -80 651 l0 162 70 17 c90 22 154 54 191 96 24 27 29 42 29 83 0
27 -7 63 -15 78 -14 28 -85 71 -117 71 -9 0 -19 8 -22 18 -3 9 -26 39 -50 66
l-45 48 35 30 c43 38 46 87 10 141 -21 31 -23 37 -10 55 43 62 125 217 143
270 26 77 28 214 5 293 -47 159 -203 399 -383 589 -39 41 -71 78 -71 82 0 4
11 15 24 23 33 22 56 74 56 129 0 94 -104 157 -215 129z m84 -49 c66 -13 100
-79 71 -135 -14 -25 -82 -59 -119 -59 -45 0 -91 48 -91 97 0 45 13 66 55 88
34 17 40 18 84 9z m16 -270 c9 -14 45 -57 81 -96 57 -62 64 -74 64 -111 0 -50
-23 -132 -80 -286 -55 -148 -90 -268 -90 -308 0 -84 105 4 172 142 60 126 79
273 52 410 -6 34 123 -156 181 -267 82 -156 97 -278 50 -405 -23 -60 -127
-243 -162 -285 -8 -9 -56 -27 -106 -39 -148 -38 -414 -31 -498 11 -43 22 -82
78 -161 227 -56 105 -73 194 -56 299 25 162 193 436 393 642 100 102 128 114
160 66z m310 -1290 c21 -45 16 -58 -34 -84 -166 -84 -572 -74 -672 16 -25 22
-24 56 1 79 18 16 22 16 52 2 65 -30 115 -39 248 -42 146 -4 276 13 340 45 47
24 46 25 65 -16z m-601 -171 c85 -24 420 -24 484 0 40 15 45 15 72 -1 27 -17
100 -111 100 -131 0 -14 -60 -39 -135 -55 -255 -54 -513 -44 -660 25 -54 25
-57 44 -14 85 17 16 39 44 51 62 23 37 22 37 102 15z m761 -162 c27 -16 30
-22 30 -68 -1 -61 -11 -75 -79 -107 -177 -86 -675 -99 -886 -24 -75 27 -130
74 -130 111 0 27 39 80 72 98 16 8 24 7 41 -9 72 -66 203 -94 427 -93 91 0
196 5 233 10 78 11 190 59 209 90 14 23 32 21 83 -8z m-258 -367 c-9 -134 10
-360 47 -554 39 -211 87 -416 117 -507 24 -73 19 -114 -17 -137 -13 -9 -65
-30 -116 -47 -189 -64 -492 -46 -664 38 -77 38 -81 45 -60 101 80 206 141 454
172 687 9 75 17 207 18 310 l1 180 254 1 253 0 -5 -72z m-761 -1140 c-13 -33
22 -72 96 -108 130 -64 295 -92 473 -83 246 14 420 84 429 173 4 38 17 40 55
9 66 -56 31 -129 -86 -183 -119 -54 -250 -76 -463 -76 -269 0 -404 28 -522
107 -76 51 -92 83 -61 125 30 41 92 69 79 36z m-11 -225 c155 -82 492 -121
733 -84 96 14 222 48 294 79 48 21 47 21 46 -12 -1 -47 31 -92 154 -220 130
-133 160 -182 153 -247 -9 -74 -16 -90 -58 -128 -126 -113 -412 -184 -787
-194 -223 -6 -355 8 -549 58 -141 36 -243 84 -295 138 -35 36 -40 47 -44 99
-6 78 19 125 116 222 117 116 138 149 159 240 10 44 20 79 23 77 3 -1 28 -14
55 -28z m1403 -678 c22 -38 28 -84 16 -116 -4 -8 -25 -29 -48 -44 -40 -28
-207 -107 -244 -116 -9 -3 -41 -11 -70 -19 -127 -36 -291 -50 -562 -51 -215 0
-285 4 -370 19 -211 37 -383 110 -463 195 -51 55 -61 97 -32 138 l16 22 47
-34 c156 -112 509 -183 857 -172 231 7 423 36 585 88 71 23 200 90 220 114 18
22 24 19 48 -24z m-1668 -256 c130 -66 338 -116 561 -137 220 -19 660 10 779
52 165 57 270 110 328 163 l22 20 0 -62 c0 -78 -16 -110 -81 -161 -147 -116
-383 -183 -689 -196 -244 -11 -608 36 -792 102 -103 37 -204 92 -233 126 -22
26 -25 39 -25 110 l0 80 40 -35 c21 -20 62 -48 90 -62z"/>
<path d="M4590 5652 c-73 -32 -83 -65 -78 -231 l4 -141 -41 0 c-22 0 -51 -7
-63 -16 l-22 -15 0 154 c0 191 -1 193 -118 188 -164 -5 -342 -62 -362 -116 -7
-17 -7 -146 -2 -369 7 -288 11 -347 24 -368 9 -13 43 -39 77 -57 l61 -32 -20
-26 c-11 -14 -20 -36 -20 -49 0 -30 44 -80 91 -105 24 -12 39 -26 39 -38 0
-18 58 -77 95 -99 18 -10 18 -20 1 -313 -25 -449 -43 -702 -71 -1010 -14 -152
-25 -292 -25 -312 0 -32 -5 -39 -39 -56 -90 -46 -114 -113 -78 -212 14 -35 22
-71 20 -79 -12 -37 -61 -93 -135 -155 -98 -82 -129 -139 -136 -251 -6 -100 4
-155 38 -206 16 -24 30 -47 29 -53 0 -5 -14 -19 -32 -30 -44 -28 -55 -68 -63
-245 l-7 -151 51 -49 c118 -113 423 -212 787 -255 272 -32 690 -14 955 40 275
55 516 168 587 274 21 31 23 45 23 178 0 153 -11 202 -49 222 -16 9 -19 17
-14 48 4 21 16 53 27 73 17 28 21 52 21 125 0 128 -31 189 -155 316 -118 119
-126 138 -99 216 30 86 22 147 -25 190 -23 22 -46 33 -65 33 -34 0 -32 -5 -55
165 -14 100 -28 233 -56 540 -11 127 -36 555 -46 795 l-7 165 42 23 c53 30 74
59 60 84 -12 23 -15 20 37 46 23 12 53 35 68 52 26 32 35 83 16 95 -19 12 -10
31 26 50 75 40 77 47 90 349 19 402 18 489 -4 509 -48 43 -187 76 -352 84
-101 4 -119 2 -150 -15 -19 -10 -38 -30 -41 -43 -4 -13 -7 -83 -8 -156 l-1
-131 -50 -4 -50 -3 0 33 c0 29 -28 72 -47 72 -5 0 -7 60 -6 134 l2 133 -82 6
c-108 9 -578 8 -597 -1z m575 -50 c34 -5 50 -12 50 -21 0 -13 -50 -15 -327
-16 -181 -1 -328 2 -328 6 0 5 12 15 28 23 22 12 74 15 277 15 138 -1 273 -4
300 -7z m620 -46 c107 -21 155 -43 155 -71 0 -17 -11 -27 -48 -43 -60 -26
-191 -60 -259 -69 -29 -3 -58 -12 -64 -20 -7 -8 -11 -43 -10 -87 1 -46 -2 -77
-9 -81 -7 -4 -9 -19 -5 -36 10 -43 -15 -37 -41 9 -15 28 -18 46 -12 68 4 17 4
30 -2 32 -6 2 -10 56 -10 128 l0 125 33 -5 c17 -3 84 -8 147 -11 63 -3 135
-11 159 -16 69 -15 60 -2 -16 21 -46 14 -108 23 -191 27 -101 5 -122 9 -117
20 3 8 5 19 5 25 0 15 178 4 285 -16z m-1471 -12 c9 -3 16 -12 16 -19 0 -14
-22 -20 -110 -30 -30 -3 -78 -12 -105 -20 l-50 -15 70 5 c39 2 99 7 135 11
l65 6 2 -186 c1 -102 -1 -186 -5 -186 -30 1 -37 22 -38 120 -1 55 -4 104 -8
107 -3 3 -65 21 -136 40 -128 32 -182 53 -195 73 -8 14 62 47 140 65 37 8 70
14 72 12 2 -2 27 2 56 9 63 15 71 16 91 8z m898 -20 c10 -7 11 -111 0 -118
-20 -12 -155 -28 -246 -28 -54 0 -154 8 -222 18 -115 16 -125 16 -149 0 l-25
-16 0 74 0 75 108 4 c129 5 522 -2 534 -9z m725 -181 c-4 -32 -9 -150 -13
-263 -3 -113 -7 -226 -9 -253 -4 -77 -37 -101 -210 -156 -205 -65 -439 -91
-815 -91 -332 0 -615 40 -788 112 -91 38 -130 69 -136 111 -3 18 -8 157 -11
311 -6 265 -5 278 12 271 40 -18 131 -45 186 -56 l59 -11 -24 -25 c-22 -24
-23 -31 -21 -160 1 -106 5 -139 16 -151 9 -8 55 -25 104 -38 48 -13 113 -30
143 -39 57 -16 150 -20 150 -7 1 84 14 368 16 371 2 2 76 -4 165 -14 201 -22
332 -17 496 20 l23 5 2 -187 3 -188 68 -3 c89 -4 228 21 272 48 44 27 54 61
57 211 2 94 -1 120 -14 141 l-17 25 82 16 c45 9 107 25 137 36 30 11 59 20 64
20 5 1 6 -25 3 -56z m-1187 2 c121 -16 309 -19 392 -6 58 10 128 -1 128 -19 0
-6 -1 -10 -2 -10 -275 -35 -336 -36 -483 -15 -55 8 -126 15 -157 15 -55 0 -58
1 -58 25 0 22 4 25 38 25 20 0 84 -7 142 -15z m867 -342 c-33 -33 -302 -75
-302 -47 0 11 32 20 124 34 41 6 93 21 115 33 l41 22 2 129 c1 95 5 131 15
137 20 12 25 -289 5 -308z m-1361 251 c4 -20 4 -76 0 -125 -6 -80 -5 -89 12
-98 16 -9 120 -29 240 -47 23 -4 32 -10 32 -24 0 -28 -51 -26 -170 6 -52 14
-108 29 -125 33 l-30 7 -3 121 c-3 117 5 163 28 163 5 0 12 -16 16 -36z m283
-101 c0 -53 -3 -102 -6 -109 -6 -15 -34 -7 -32 10 4 25 -21 66 -41 66 -11 0
-20 5 -20 11 0 6 -8 1 -18 -12 -13 -15 -25 -20 -37 -15 -13 5 -15 10 -7 18 6
6 8 17 5 24 -3 8 0 14 6 14 6 0 11 -7 11 -15 0 -8 4 -15 9 -15 5 0 11 7 15 15
3 10 19 15 47 15 58 0 46 24 -16 30 -38 4 -49 9 -51 25 -4 27 12 35 79 35 l57
0 -1 -97z m879 70 c-3 -26 -7 -28 -50 -31 -47 -3 -48 -3 -48 27 0 30 1 31 51
31 49 0 50 -1 47 -27z m66 -79 c9 -22 8 -24 -9 -18 -8 4 -15 12 -15 20 0 19
16 18 24 -2z m-54 -9 c-7 -9 -19 -14 -27 -11 -7 3 -13 -1 -13 -9 0 -8 5 -15
11 -15 13 0 8 -52 -6 -62 -30 -22 -49 8 -20 32 18 15 11 30 -16 30 -23 0 -24
8 -2 32 10 11 30 18 51 18 30 0 33 -2 22 -15z m-956 -52 c3 -10 9 -24 12 -30
3 -8 -1 -13 -11 -13 -12 0 -15 5 -11 16 4 11 2 15 -8 11 -15 -6 -30 16 -19 27
12 12 31 6 37 -11z m1006 -15 c24 -3 24 -4 -7 -15 -27 -10 -31 -9 -26 3 3 8 0
14 -6 14 -6 0 -11 8 -11 17 0 15 1 15 13 1 6 -9 23 -18 37 -20z m-1103 -4 c-3
-3 -12 -4 -19 -1 -8 3 -5 6 6 6 11 1 17 -2 13 -5z m1441 -452 c3 -28 -2 -35
-44 -61 -222 -142 -975 -197 -1424 -105 -99 21 -218 67 -252 99 -33 31 -34 36
-9 66 l19 24 110 -28 c435 -109 1139 -99 1517 22 33 10 65 18 70 17 6 -2 11
-17 13 -34z m-98 -151 c0 -22 -53 -60 -125 -90 -97 -41 -208 -64 -407 -87
-251 -28 -618 -8 -798 42 -84 24 -222 95 -209 108 2 2 51 -7 108 -20 306 -69
745 -80 1093 -28 145 22 284 57 304 77 10 10 34 9 34 -2z m-110 -551 c11 -284
26 -497 55 -810 16 -172 51 -437 60 -462 8 -20 -38 -73 -89 -103 -65 -38 -250
-96 -376 -117 -416 -70 -953 6 -1046 147 -15 22 -13 52 15 407 33 407 81 1158
81 1266 0 57 2 63 18 57 100 -40 380 -75 595 -75 233 0 495 34 617 79 l45 17
7 -61 c3 -33 11 -188 18 -345z m222 -1308 c27 -23 33 -77 14 -125 -18 -48 -75
-91 -166 -127 -30 -12 -71 -28 -90 -36 -61 -24 -267 -64 -414 -79 -191 -20
-346 -19 -528 5 -429 56 -666 201 -543 334 31 33 40 33 55 -4 17 -41 82 -98
144 -125 106 -47 332 -90 531 -101 284 -17 719 70 848 169 54 41 87 79 87 99
0 15 5 18 23 12 12 -3 30 -13 39 -22z m3 -278 c11 -20 59 -76 108 -123 115
-112 153 -183 151 -286 -2 -101 -31 -147 -144 -222 -150 -101 -445 -183 -760
-212 -578 -54 -1225 93 -1331 302 -16 31 -21 59 -21 123 0 121 25 171 133 262
79 68 139 140 139 169 0 18 7 17 41 -8 69 -49 263 -104 474 -135 160 -24 472
-24 641 -1 178 25 345 70 449 121 50 25 92 45 95 45 3 1 14 -15 25 -35z m168
-674 c-132 -121 -356 -201 -703 -251 -197 -28 -546 -31 -740 -6 -165 22 -355
69 -432 108 -124 62 -228 141 -228 174 0 3 15 -5 33 -19 52 -40 213 -112 312
-140 126 -36 352 -73 535 -87 479 -37 992 70 1233 256 65 51 59 29 -10 -35z
m98 -51 c29 -70 -42 -159 -183 -230 -222 -112 -603 -182 -988 -183 -481 0
-913 110 -1060 271 -53 58 -58 75 -36 127 21 51 33 52 75 4 75 -84 208 -147
416 -196 264 -63 420 -74 745 -56 463 27 732 98 925 247 39 29 75 52 82 50 6
-3 17 -18 24 -34z m9 -221 c0 -70 -1 -72 -40 -109 -104 -99 -351 -197 -602
-238 -633 -105 -1397 -4 -1625 215 -46 43 -49 57 -37 146 l6 45 47 -46 c115
-111 374 -193 751 -237 114 -13 195 -15 380 -11 308 8 516 39 751 112 131 41
290 119 332 162 18 17 33 32 35 32 1 1 2 -31 2 -71z"/>
<path d="M4505 5100 c3 -5 8 -10 11 -10 2 0 4 5 4 10 0 6 -5 10 -11 10 -5 0
-7 -4 -4 -10z"/>
</g>
</svg>
